<?xml version="1.0" standalone="no"?>
<!DOCTYPE svg PUBLIC "-//W3C//DTD SVG 1.1//EN" "http://www.w3.org/Graphics/SVG/1.1/DTD/svg11.dtd" >
<svg xmlns="http://www.w3.org/2000/svg">
<metadata>
Created by FontForge 20120731 at Sat Jan  9 23:40:35 2016
 By Ads
</metadata>
<defs>
<font id="library" horiz-adv-x="1024" >
  <font-face 
    font-family="library"
    font-weight="500"
    font-stretch="normal"
    units-per-em="1024"
    panose-1="2 0 6 3 0 0 0 0 0 0"
    ascent="896"
    descent="-128"
    x-height="792"
    bbox="0 -212 1304 898"
    underline-thickness="50"
    underline-position="-100"
    unicode-range="U+0078-E660"
  />
<missing-glyph horiz-adv-x="374" 
d="M34 0v682h272v-682h-272zM68 34h204v614h-204v-614z" />
    <glyph glyph-name=".notdef" horiz-adv-x="374" 
d="M34 0v682h272v-682h-272zM68 34h204v614h-204v-614z" />
    <glyph glyph-name=".null" horiz-adv-x="0" 
 />
    <glyph glyph-name="nonmarkingreturn" horiz-adv-x="341" 
 />
    <glyph glyph-name="x" unicode="x" horiz-adv-x="1001" 
d="M281 543q-27 -1 -53 -1h-83q-18 0 -36.5 -6t-32.5 -18.5t-23 -32t-9 -45.5v-76h912v41q0 16 -0.5 30t-0.5 18q0 13 -5 29t-17 29.5t-31.5 22.5t-49.5 9h-133v-97h-438v97zM955 310v-52q0 -23 0.5 -52t0.5 -58t-10.5 -47.5t-26 -30t-33 -16t-31.5 -4.5q-14 -1 -29.5 -0.5
t-29.5 0.5h-32l-45 128h-439l-44 -128h-29h-34q-20 0 -45 1q-25 0 -41 9.5t-25.5 23t-13.5 29.5t-4 30v167h911zM163 247q-12 0 -21 -8.5t-9 -21.5t9 -21.5t21 -8.5q13 0 22 8.5t9 21.5t-9 21.5t-22 8.5zM316 123q-8 -26 -14 -48q-5 -19 -10.5 -37t-7.5 -25t-3 -15t1 -14.5
t9.5 -10.5t21.5 -4h37h67h81h80h64h36q23 0 34 12t2 38q-5 13 -9.5 30.5t-9.5 34.5q-5 19 -11 39h-368zM336 498v228q0 11 2.5 23t10 21.5t20.5 15.5t34 6h188q31 0 51.5 -14.5t20.5 -52.5v-227h-327z" />
    <glyph glyph-name="uniE600" unicode="&#xe600;" horiz-adv-x="1025" 
d="M332 565q-9 -9 -9 -20.5t9 -20.5l321 -321q6 -6 13 -8t14.5 0t13.5 7q8 9 8 20.5t-8 20.5l-322 322q-4 4 -9.5 6t-11 2t-10.5 -2t-9 -6zM96 836l-36 -36q-29 -30 -44.5 -68t-15.5 -77t15.5 -77t44.5 -68l127 -127q46 -46 110.5 -56.5t120.5 16.5q1 0 1 1h1h1q4 2 7 6
q9 8 9 20t-9 20q-14 15 -33 6q-17 -8 -35 -11.5t-36.5 -2.5t-36 6.5t-34 15t-30.5 23.5l-120 119q-29 30 -39.5 69.5t0 79t39.5 69.5l29 29q45 45 109 45t109 -45l119 -120q35 -35 43 -83.5t-13 -91.5v0q-3 -7 -1.5 -16t7.5 -15q9 -8 21 -8t20 8q4 4 6 8q14 28 18.5 59.5
t-0.5 62t-19.5 60t-37.5 52.5l-127 127q-60 60 -145 60t-145 -60zM963 -31l-36 -36q-60 -60 -144.5 -60t-144.5 60l-127 126q-47 47 -57.5 111.5t17.5 120.5v1v1q1 0 1 1q2 4 5 7q8 8 20 8t21 -8q14 -15 5 -33q-13 -28 -14 -59t10.5 -61t34.5 -52l120 -120q45 -45 108.5 -45
t108.5 45l29 29q45 45 45 108.5t-45 108.5l-119 120q-35 35 -84 43t-91 -13v0q-8 -3 -16.5 -1.5t-14.5 7.5q-4 4 -6.5 9.5t-2.5 11t2.5 10.5t6.5 10q2 1 3.5 2.5t3.5 2.5q57 29 122.5 18.5t112.5 -57.5l126 -127q40 -39 54 -91.5t0 -105.5t-54 -92z" />
    <glyph glyph-name="uniE601" unicode="&#xe601;" 
d="M853 416q-12 11 -28 11t-27 -11l-247 -247v681q0 11 -5.5 19.5t-14 14t-19.5 5.5q-8 0 -15 -3t-12.5 -8.5t-8.5 -12.5t-3 -15v-683l-284 285q-7 8 -17 10.5t-20 0t-18 -9.5q-4 -5 -7 -10.5t-4 -11.5t0 -12t4 -11.5t7 -9.5l349 -351q5 -6 13 -9q8 -4 16 -4q20 0 32 19
l309 308q11 11 11 27t-11 28zM939 -121h-854q-8 0 -15 3t-12.5 8.5t-8.5 12.5t-3 15q0 16 11.5 27.5t27.5 11.5h854q8 0 15 -3t12.5 -8.5t8.5 -12.5t3 -15t-3 -15t-8.5 -12.5t-12.5 -8.5t-15 -3z" />
    <glyph glyph-name="uniE602" unicode="&#xe602;" 
d="M1 891h1023v-1023h-1023v1023z" />
    <glyph glyph-name="uniE603" unicode="&#xe603;" 
d="M279 310q1 -1 11 -11.5t18 -18t19.5 -14.5t19.5 -7q9 0 36 22.5t62 57.5t64 66t56 61l273 316q15 15 30 16q27 1 43 -14l88 -87q2 -2 4 -4.5t4 -5.5t3.5 -6t2.5 -6.5t1.5 -6.5t0.5 -7q1 -21 -14 -37l-497 -525l1 -1l-106 -112q-15 -16 -36 -17q-11 0 -20.5 3.5
t-16.5 10.5l-300 282q-16 15 -16.5 36.5t14.5 36.5l70 75q7 7 16.5 11.5t19.5 4.5q5 0 10.5 -0.5t10 -2.5t8.5 -4.5t8 -6.5z" />
    <glyph glyph-name="uniE604" unicode="&#xe604;" 
d="M587 383l415 401q15 15 15 35.5t-15 35.5t-36.5 15t-36.5 -15l-415 -402l-414 402q-15 15 -36.5 15t-36.5 -15t-15 -35.5t15 -35.5l414 -401l-414 -402q-15 -14 -15 -35t15 -35.5t36.5 -14.5t36.5 15l414 401l415 -401q15 -15 36.5 -15t36.5 14.5t15 35.5t-15 35z" />
    <glyph glyph-name="uniE605" unicode="&#xe605;" 
d="M511 1q-81 0 -161.5 30.5t-141 77t-109 99t-74 100t-25.5 76.5q0 38 25.5 88t73.5 101.5t109.5 95t141.5 71t161 27.5q67 0 135 -21.5t122.5 -56t103 -77.5t80.5 -85.5t50.5 -80.5t18.5 -62q0 -25 -18.5 -63t-50.5 -81t-80.5 -85.5t-103 -76.5t-122.5 -55.5t-135 -21.5z
M511 703q-71 0 -141 -23t-123.5 -59t-96 -79t-64.5 -84.5t-22 -73.5q0 -25 22 -64t64.5 -83t96 -82.5t123.5 -64t140.5 -25.5t141 25.5t123.5 64.5t95.5 83.5t65 83.5t22.5 62q0 17 -12 42.5t-34 55t-52 60.5t-70 60t-83 51.5t-94 36t-102 13.5zM511 192q-80 0 -136 56.5
t-56 135.5t56 135.5t135.5 56.5t135.5 -56.5t56 -135.5q0 -39 -15 -74.5t-40.5 -61t-61 -41t-74.5 -15.5zM511 512q-53 0 -90.5 -37.5t-37.5 -90.5t37.5 -90.5t90.5 -37.5t90 37.5t37 90.5t-37 90.5t-90 37.5z" />
    <glyph glyph-name="uniE606" unicode="&#xe606;" 
d="M515 -122l-21 8q-116 44 -196 101q-72 51 -114 111q-38 54 -51 106t-13 103v452l60 -2q72 -2 127.5 9.5t95.5 29.5q46 21 69 45l43 46l42 -46q3 -3 8.5 -7.5t21.5 -15t35 -19.5q37 -18 88.5 -30t116.5 -12h23l60 2v-210h-61v147h-11h-11q-43 0 -84.5 5.5t-79.5 16.5
t-71 27q-16 8 -30 16.5t-23.5 15.5t-14.5 11.5t-9 8.5q-6 -6 -14 -12.5t-27.5 -19t-41.5 -23.5q-24 -11 -50 -19.5t-55 -14.5q-68 -14 -146 -12v-389q0 -35 5.5 -65.5t26 -72t55 -77.5t98 -76t149.5 -73q86 33 149 73t98 76t55 77.5t26 72t6 65.5v101h61v-101
q0 -119 -64 -209q-43 -60 -114 -111q-80 -56 -196 -101zM267 370l56 45l113 -83q6 7 17.5 18t46.5 43t69.5 60.5t82.5 61t90 54.5l21 -25q-7 -6 -20.5 -17.5t-51 -49.5t-71.5 -78t-74 -99.5t-67 -117.5zM267 370z" />
    <glyph glyph-name="uniE607" unicode="&#xe607;" 
d="M512 893q-104 0 -198 -40t-162.5 -108.5t-108.5 -162.5t-40 -198t40 -198t108.5 -162.5t162.5 -108.5t198 -40t198 40t162.5 108.5t108.5 162.5t40 198q0 83 -25.5 160.5t-72.5 140.5t-110 110t-140.5 72.5t-160.5 25.5zM566 53q-11 -11 -24.5 -16.5t-29.5 -5.5
q-33 1 -56 23q-5 5 -8.5 11t-6 12.5t-4 14t-1.5 15.5q0 34 22 55q7 7 15.5 11.5t18 6.5t20.5 2q31 0 54 -22q11 -11 16.5 -24t5.5 -29q0 -34 -22 -54zM514 732q29 0 52.5 -19t35.5 -50t9 -65l-23 -268q-3 -27 -24.5 -46t-50 -19t-49.5 19t-24 46l-23 268q-4 53 24.5 93.5
t72.5 40.5v0zM514 732z" />
    <glyph glyph-name="uniE608" unicode="&#xe608;" 
d="M512 348q-47 0 -81 -33.5t-34 -80.5q0 -32 15.5 -58t42 -41.5t57.5 -15.5q47 0 81 33.5t34 81.5q0 31 -15.5 57.5t-42 41.5t-57.5 15zM512 173q-25 0 -43 17.5t-18 43.5q0 16 8 30t22.5 22t30.5 8q6 0 12 -1t11.5 -3.5t10.5 -5.5t9 -7.5t7.5 -9t5.5 -10t3.5 -11.5
t1.5 -12q0 -17 -8 -31t-22 -22t-31 -8zM860 589h-81v32q0 55 -21 105.5t-57 87t-85.5 58t-103.5 21.5q-111 0 -189 -80t-78 -192v-32h-80q-7 0 -14 -1t-13 -3t-12 -5.5t-11 -7.5t-10 -8.5t-8.5 -10t-6.5 -11.5t-5.5 -12.5t-3.5 -13.5t-1 -14v-537q0 -36 25 -61.5t60 -25.5
h695q22 0 41.5 11.5t31 32t11.5 43.5v537q0 36 -25 61.5t-59 25.5zM299 621q0 59 28.5 109t77.5 79.5t107 29.5q88 0 150.5 -64t62.5 -154v-32h-426v32zM890 -35q0 -14 -9 -23.5t-21 -9.5h-695q-13 0 -22 9.5t-9 23.5v537q0 14 9 23.5t22 9.5h695q12 0 21 -9.5t9 -23.5v-537
z" />
    <glyph glyph-name="uniE609" unicode="&#xe609;" 
d="M501 171q-81 0 -149 48t-108 131.5t-40 181.5q0 73 23.5 140t63.5 115t95 76.5t115 28.5q80 0 148.5 -48t108 -131t39.5 -181q0 -42 -7.5 -83t-22 -76.5t-35 -66.5t-46 -56t-55 -42.5t-62.5 -27t-68 -9.5zM501 827q-47 0 -89.5 -23.5t-73.5 -63t-49 -94t-18 -114.5
q0 -122 67.5 -209t162.5 -87t162.5 87t67.5 209q0 80 -31 148t-84 107.5t-115 39.5zM921 -124h-818q-27 0 -49.5 10t-36 30.5t-13.5 46.5v24q0 37 24.5 71t59.5 47l203 81q12 5 24.5 -1t17.5 -19t-1 -25t-19 -17l-203 -81q-10 -3 -19.5 -12.5t-15 -21.5t-5.5 -22v-24
q0 -22 33 -22h818q33 0 33 22v24q0 16 -12.5 33.5t-27.5 22.5l-225 81q-13 5 -19 17t-1 25q2 5 5 9.5t7.5 7t9.5 4t10 1.5t10 -2l225 -81q35 -13 59.5 -47t24.5 -71v-24q0 -26 -13.5 -46.5t-36 -30.5t-49.5 -10v0z" />
    <glyph glyph-name="uniE60A" unicode="&#xe60a;" 
d="M523 81q-21 0 -36 -15t-15 -36.5t15 -36.5t36 -15t36 15t15 37q0 10 -4 19.5t-11 16.5t-16.5 11t-19.5 4zM776 886h-506q-32 0 -54.5 -22.5t-22.5 -54.5v-850q0 -32 22.5 -54.5t54.5 -22.5h506q21 0 39 10.5t28 28t10 38.5v850q0 32 -22.5 54.5t-54.5 22.5zM270 835h506
q7 0 13 -3.5t9.5 -9.5t3.5 -13v-637h-558v637q0 10 7.5 18t18.5 8zM776 -67h-506q-5 0 -10 2.5t-8.5 5.5t-5.5 8t-2 10v157h558v-157q0 -3 -1 -6.5t-2.5 -6.5t-4 -5t-5.5 -4t-6 -3t-7 -1z" />
    <glyph glyph-name="uniE60B" unicode="&#xe60b;" 
d="M896 768h-768q-53 0 -90.5 -37.5t-37.5 -90.5v-512q0 -53 37.5 -90.5t90.5 -37.5h768q53 0 90.5 37.5t37.5 90.5v512q0 53 -37.5 90.5t-90.5 37.5zM896 704q6 0 18 -4l-379 -374q-9 -10 -23 -10t-23 10l-381 374q4 1 6.5 2t6.5 1.5t7 0.5h768zM960 128q0 -26 -19 -45
t-45 -19h-768q-26 0 -45 19t-19 45v512q0 3 1 8q1 2 1 3l378 -371q14 -14 31.5 -21t36.5 -7q40 0 68 28l377 374q1 -2 1 -4l2 -6v-4v-512z" />
    <glyph glyph-name="uniE60C" unicode="&#xe60c;" horiz-adv-x="1025" 
d="M512 -125q-102 0 -195 40t-160.5 107t-107 160t-39.5 195q0 69 18 134t50.5 120t78.5 101.5t101 79t120.5 50.5t133.5 18q102 0 195 -40t160.5 -107t107 -160t39.5 -196q0 -81 -25.5 -158t-71.5 -138.5t-108 -108t-138.5 -72t-158.5 -25.5zM761 281v7l-1 8l-1 9l-2 9
l-1 4l-1 5l-2 4l-2 5l-2 5l-2 5l-4 8l-3 7l-4 6l-3 6l-3 5l-2 5l-6 8l-7 9l-1 3l-1 1v1l2 3l1 3l1 6l1 3v3l1 2v3l-1 2v3l-1 4l-2 5l-1 4l-1 4l-3 4l-1 3l-2 3l-3 5l-1 1v2l-1 8l-1 6l-1 7l-2 8l-2 8l-1 5l-1 4l-2 4l-2 5l-1 5l-2 5l-5 10l-2 4l-3 5l-3 5l-3 5l-4 4l-3 5
l-5 5l-4 4l-4 4l-5 4l-3 2l-2 2l-6 3l-6 4l-7 4l-6 3l-8 3l-7 3l-7 3l-8 2l-7 2l-7 1l-7 2l-8 1l-8 1h-7h-23h-8l-14 -2l-8 -1l-7 -1l-7 -2l-6 -2l-7 -2l-6 -2l-7 -3l-6 -3l-5 -3l-6 -3l-5 -3l-5 -4l-4 -4l-6 -6l-6 -5l-5 -5l-5 -6l-4 -5l-4 -6l-4 -5l-2 -2l-2 -3l-3 -6
l-3 -5l-2 -4l-3 -6l-2 -4l-2 -5l-1 -4l-2 -5l-2 -7l-2 -8l-1 -6v-6v-10l-2 -2l-1 -2l-2 -2l-1 -2l-1 -4l-1 -5l-1 -4v-2v-3l-3 -5l-2 -4l-2 -4l-1 -3l-1 -4l-1 -3v-9l1 -2l1 -3l1 -3l-2 -1l-5 -4l-6 -5l-4 -4l-4 -3l-3 -2l-2 -3l-4 -4l-5 -5l-3 -4l-4 -6l-4 -6l-4 -5l-3 -6
l-3 -6l-3 -5l-2 -5l-2 -6l-2 -5l-2 -6l-1 -5l-1 -5l-1 -5v-4l-1 -9v-13l1 -3l1 -7v-3l1 -2l1 -3l1 -2l1 -4h2v-2h1h1h4l4 1l3 1l3 3l3 2l3 2l3 3l3 3l2 3l3 3l2 2l1 3l3 4v2l1 1v1l1 1l1 1h1v-1h1l1 -6l2 -5l2 -5l2 -4l2 -5l2 -4l2 -4l3 -4l2 -3l2 -4l5 -6l5 -5l4 -4l5 -4
l3 -3l6 -5l2 -1l1 -1h-1l-1 -1h-4l-4 -1h-3l-4 -1l-3 -1l-3 -1l-2 -1l-2 -1l-3 -1l-2 -1l-1 -1l-2 -2l-3 -3l-1 -1l-1 -1l-1 -3l-1 -3l-1 -2v-2v-4l-1 -2v-2v-2v-2v-2l1 -2l1 -3l1 -2l1 -2l1 -1l1 -2l2 -1l1 -1l4 -3l4 -2l4 -2l5 -2l5 -2l5 -2l6 -1l6 -1l12 -2l6 -1l13 -1
l13 -1h22l6 1h5l4 1h5l7 1l5 2l4 1l9 3l4 2l4 2l6 3l6 3l4 2l3 3l5 -1h3l8 -1h6h2l3 -1l3 -1l4 -1l8 -3l8 -2l7 -2l8 -2l7 -2l9 -1l7 -1l8 -1h7l8 -1h21l7 1h7l6 1l12 3l6 1l2 1l3 1l5 1l4 2l4 2l4 3l3 2l2 1l1 2l2 3l3 3l1 1v1l1 2v2v1l1 2l-1 2v3l-1 2l-1 2l-1 3l-2 2
l-2 2l-2 2l-4 3l-5 4l-6 3l-5 3l-12 6l-3 1l-1 1l-1 1l6 6l3 2l2 3l4 6l4 6l3 5l4 5l4 10l3 8l2 6l1 2l1 2l2 1v0l4 -6l2 -6l2 -4l3 -2l2 -4l2 -3l2 -3l2 -1l1 -1l1 -1l2 -1l2 -1l1 -1h2l2 1l1 1h2l2 2l1 1l2 2l1 2l2 2l1 2l1 3l1 2l2 5l1 6l1 7v4v3v1z" />
    <glyph glyph-name="uniE60D" unicode="&#xe60d;" 
d="M413 284q-13 5 -28 0t-23 -17.5t-5 -26t17 -19.5q9 -4 18.5 -3t19 6.5t14.5 13.5q3 5 4 9.5t1 9t-1 8.5t-3 7.5t-5.5 6.5t-8.5 5zM457 302q-5 2 -11 -0.5t-9 -7.5q-7 -12 6 -17q12 -5 19 8q2 3 2 6.5t-2 6t-5 4.5zM429 419q-85 -8 -141.5 -53.5t-51 -101.5t70 -89.5
t149.5 -25t141.5 54t51 101.5t-70 89.5t-149.5 24.5zM529 244q-17 -39 -60.5 -57.5t-86.5 -4.5q-40 13 -56 48t2 72q18 35 58.5 53t80.5 7q21 -5 37 -17t24 -28t9 -35t-8 -38zM512 880q-102 0 -195 -40t-160.5 -107t-107 -160t-39.5 -196q0 -81 25.5 -158t71.5 -138.5
t108 -108t138.5 -72t158.5 -25.5q102 0 195 40t160.5 107t107 160t39.5 195.5t-39.5 195.5t-107 160t-160.5 107t-195 40zM457 100q-73 0 -138 21.5t-108 64t-43 96.5q0 90 103 192q32 32 66.5 55.5t64.5 35.5t55 11.5t39 -14.5q25 -25 8 -80q-4 -12 7 -10q4 0 9 2
q35 15 66 20t54 0t34 -21q17 -24 -1 -68q-3 -6 -1 -9.5t4 -5t9 -2.5q34 -11 58.5 -34.5t24.5 -59.5q0 -26 -14 -53t-42 -52.5t-65 -45t-86.5 -31.5t-103.5 -12zM715 460q3 11 1 22t-10 20q-17 19 -42 14q-3 -1 -6.5 -1t-7 2t-6 4t-4.5 5t-2 7q-2 9 3 17t14 10
q50 10 84.5 -27.5t18.5 -86.5q-2 -6 -6.5 -10t-10.5 -5t-12 1q-9 2 -13 10.5t-1 17.5v0zM847 418v-1q-4 -10 -13.5 -15t-20 -1.5t-15.5 13t-1 20.5q5 15 6 32t-2.5 33t-11.5 32t-19 29q-10 10 -21.5 18t-23.5 13.5t-25.5 8t-26.5 2.5t-27 -3q-10 -2 -19 4t-12 17v4v4
q0 2 0.5 4t1.5 4t2 3.5t3 2.5l2 4q2 1 3.5 2t3.5 1.5t4 1.5h1q22 5 46 3.5t46 -8t43 -20t38 -31.5q33 -37 43 -85t-5 -92z" />
    <glyph glyph-name="uniE60E" unicode="&#xe60e;" 
d="M1005 620q-12 12 -29.5 12t-29.5 -12l-427 -431l-433 429q-12 12 -29.5 12t-29.5 -12.5t-12 -29.5t12 -29l460 -457q1 0 1.5 -0.5t1.5 -0.5v-1q12 -12 29 -12q18 0 30 13l456 460q8 8 11 18.5t0 21.5t-11 19z" />
    <glyph glyph-name="uniE60F" unicode="&#xe60f;" 
d="M330 384l437 437q7 7 9.5 16t0 18.5t-9.5 16.5t-16.5 9.5t-18.5 0t-16 -9.5l-459 -459q-5 -5 -9.5 -14.5t-4.5 -14.5q0 -22 7 -29l466 -466q7 -7 16 -9.5t18.5 0t16.5 9.5q4 4 7 9t3.5 10.5t0 11t-3.5 11t-7 9.5z" />
    <glyph glyph-name="uniE610" unicode="&#xe610;" 
d="M985 278l-21 11q-25 15 -39.5 40t-14.5 55t14.5 55t39.5 40l21 11q16 8 24 25t5 35q-6 18 -13 36q-8 19 -16 36q-11 15 -29 21t-35 1l-22 -7q-27 -8 -56 -0.5t-50 28.5t-28.5 50t0.5 56l7 22q5 17 -1 35t-21 29q-19 9 -36 16t-36 13q-12 2 -23.5 -1t-21.5 -10t-15 -18
l-11 -21q-15 -25 -40 -39.5t-55 -14.5t-55 14.5t-40 39.5l-11 21q-8 16 -25 24t-35 5l-12 -4q-6 -2 -12 -4.5t-12 -4.5q-19 -8 -36 -16q-15 -11 -21 -29t-1 -35l7 -22q5 -19 3.5 -37.5t-9.5 -36.5t-22 -32q-9 -8 -19 -14.5t-20.5 -10.5t-21.5 -5.5t-22.5 -1t-22.5 3.5l-22 7
q-9 3 -18 2.5t-17.5 -3.5t-15.5 -8.5t-13 -12.5q-8 -17 -16 -36q-7 -17 -13 -36q-3 -18 5 -35t24 -25l21 -11q25 -15 39.5 -40t14.5 -55t-14.5 -55t-39.5 -40l-21 -11q-16 -8 -24 -25t-5 -35q6 -18 13 -36q8 -19 16 -36q11 -15 29 -21t35 -1l22 7q27 8 56 0.5t50 -28.5
t28.5 -49.5t-0.5 -55.5l-7 -23q-5 -17 1 -35t21 -29q19 -9 36 -16q8 -3 17.5 -6.5t18.5 -6.5q18 -3 35 5t25 24l11 21q15 25 40 39.5t55 14.5t55 -14.5t40 -39.5l11 -21q4 -8 10.5 -14.5t14.5 -10t17 -5t18 0.5q18 6 36 13q6 3 12 5.5t12 5.5t12 5q15 11 21 29t1 35l-7 22
q-8 27 -0.5 56t28.5 50t49.5 28.5t55.5 -0.5l23 -7q9 -3 18 -2.5t17.5 3.5t15.5 8.5t13 12.5l8 18l8 18q7 17 13 36q2 9 0.5 18t-5 17t-10 14.5t-14.5 10.5zM512 150q-97 0 -165.5 68.5t-68.5 165.5t68.5 165.5t165.5 68.5t165.5 -68.5t68.5 -165.5q0 -63 -31.5 -117
t-85.5 -85.5t-117 -31.5z" />
    <glyph glyph-name="uniE611" unicode="&#xe611;" 
d="M512 -102q102 0 189 36.5t148 106.5q-15 27 -51.5 54.5t-80.5 48t-92 36.5q-3 1 -6 2.5t-8 7.5t-7.5 13.5t-2 21t6.5 30.5q40 41 65.5 100.5t25.5 119.5q0 92 -53.5 143.5t-133.5 51.5q-30 0 -57.5 -7.5t-51 -24t-40.5 -39.5t-27 -54.5t-10 -69.5q0 -61 25.5 -120.5
t66.5 -99.5q4 -11 5 -21t0 -17t-4 -13t-6 -10t-7 -7t-7 -5l-5 -2q-73 -26 -135 -63.5t-83 -76.5q61 -69 148 -105.5t188 -36.5v0zM512 892q-103 0 -197.5 -40t-162.5 -108t-108 -162t-40 -197.5t40 -197.5t108 -162.5t162.5 -108.5t197.5 -40q69 0 135 18.5t121.5 51
t102.5 79.5t80 102.5t51 121.5t18 135q0 104 -40 198t-108 162t-162.5 108t-197.5 40zM512 -95q-97 0 -186 38t-153 102t-102 153t-38 186q0 78 24.5 151t68.5 132t103 103.5t132 68.5t151 24q65 0 127 -17.5t114.5 -48t97 -75t75 -97t48 -114.5t17.5 -127q0 -97 -38 -186
t-102 -153t-153 -102t-186 -38z" />
    <glyph glyph-name="uniE612" unicode="&#xe612;" 
d="M312 -126q-12 0 -20.5 8t-8.5 20t8 20l445 445l-474 475q-9 9 -9 20.5t9 19.5q3 4 7 6t8.5 2.5t8.5 0t8 -2.5t8 -6l515 -515l-485 -485q-4 -4 -9.5 -6t-10.5 -2z" />
    <glyph glyph-name="uniE613" unicode="&#xe613;" 
d="M512 896q-139 0 -257 -68.5t-186.5 -186.5t-68.5 -257t68.5 -257t186.5 -186.5t257 -68.5t257 68.5t186.5 186.5t68.5 257t-68.5 257t-186.5 186.5t-257 68.5zM512 -32q-172 0 -294 122t-122 294t122 294t294 122t294 -122t122 -294t-122 -294t-294 -122zM730 562
q-20 0 -35 -16l-249 -249l-123 124v-1q-14 15 -34 15t-34 -14t-14 -34t14 -34l155 -155l2 -2l2 -2l2 -2l1 -1q6 -5 13.5 -7.5t16.5 -2.5q23 0 38 19l278 278v1q15 14 15 35q0 20 -14 34t-34 14z" />
    <glyph glyph-name="uniE614" unicode="&#xe614;" 
d="M674 393q-13 12 -28.5 12t-25.5 -12l-90 -108l-180 216q-12 14 -27.5 14t-26.5 -14l-125 -180q-1 -1 -2.5 -3t-2.5 -3l-2 -3q-2 -1 -3 -2l-2 -4q-1 -1 -1.5 -2.5t-1.5 -3.5l-2 -4v-6q-1 -2 -1 -5l18 -179l556 35v162q0 3 -1 6l-2 6q-1 3 -2.5 5.5t-3.5 5t-3 5t-3 4.5
t-3 4zM630 490q29 1 48.5 22.5t18.5 50.5q-1 30 -22.5 50t-49.5 19q-28 -2 -48 -23.5t-18 -50.5q1 -30 22 -50t49 -18zM745 752l-646 -18q-22 -1 -38.5 -17t-15.5 -37l36 -754q1 -22 17 -38.5t37 -15.5l628 36q23 1 39 17t15 37l-18 736q-1 22 -17 38.5t-37 15.5zM135 70
l-36 610l646 18l18 -592zM925 824l-647 72q-19 2 -35 -15t-18 -39l-18 -72h53l18 72l647 -72l-72 -593v-197q11 1 19 9t12 19.5t5 25.5l90 718q1 10 -3.5 22.5t-12 23t-18 18t-20.5 8.5z" />
    <glyph glyph-name="uniE615" unicode="&#xe615;" horiz-adv-x="1305" 
d="M761 534q-88 0 -150 -63t-62 -151.5t62 -150.5t150 -62t149 62t61 151t-61 151.5t-149 62.5zM1190 769h-172q-19 24 -35 44.5t-31.5 40.5t-24.5 31l-9 11h-376q-1 0 -101 -127h-327q-47 0 -80.5 -33.5t-33.5 -81.5v-666q0 -48 33.5 -81.5t80.5 -33.5h1076q48 0 81 33.5
t33 81.5v666q0 19 -5.5 36.5t-16 31.5t-24.5 24.5t-31.5 16.5t-36.5 6zM286 479q-27 0 -46 19t-19 46t19 46t46 19q13 0 25 -5t21 -14t14 -21t5 -25q0 -27 -19 -46t-46 -19zM765 34q-119 0 -204.5 84.5t-85.5 203.5t85.5 203.5t204.5 84.5q46 0 89.5 -14.5t78 -41t61 -62
t40.5 -79.5t14 -91q0 -119 -83 -203.5t-200 -84.5z" />
    <glyph glyph-name="uniE616" unicode="&#xe616;" 
d="M512 894q-104 0 -198 -40.5t-162.5 -109t-109 -162.5t-40.5 -198t40.5 -198t109 -162.5t162.5 -109t198 -40.5t198 40.5t162.5 109t109 162.5t40.5 198t-40.5 198t-109 162.5t-162.5 109t-198 40.5zM512 20q-23 0 -39 16t-16 38.5t16 38.5t39 16q15 0 27.5 -7.5t20 -20
t7.5 -27.5q0 -11 -4.5 -21t-12 -17.5t-17.5 -11.5t-21 -4zM613 392q-16 -16 -24.5 -25t-19.5 -22.5t-16 -24.5t-5 -22v-62q0 -15 -10.5 -25.5t-25.5 -10.5t-25.5 10.5t-10.5 25.5v62q0 28 14.5 56.5t29 45t41.5 43.5l13 13q4 4 11.5 12t11.5 13t9.5 12t8 12.5t4.5 11t2 10.5
q0 13 -3 25.5t-8 23.5t-12.5 20.5t-17 17t-20.5 13t-23 8.5t-25 3q-46 0 -77.5 -31.5t-31.5 -76.5q0 -15 -11 -25.5t-26 -10.5t-25.5 10.5t-10.5 25.5q0 75 53.5 127.5t128.5 52.5q49 0 91 -24.5t66.5 -66.5t24.5 -92q0 -19 -6 -37t-20.5 -37t-24.5 -30t-30 -31z" />
    <glyph glyph-name="uniE617" unicode="&#xe617;" 
d="M457 74q0 -22 16 -38t39 -16t39 16t16 38.5t-16 38.5t-39 16q-7 0 -14.5 -2t-13.5 -5.5t-11 -8.5t-8.5 -11t-5.5 -13t-2 -15zM512 -126q-104 0 -198 40.5t-162.5 109t-109 162.5t-40.5 198t40.5 198t109 162.5t162.5 109t198 40.5t198 -40.5t162.5 -109t109 -162.5
t40.5 -198t-40.5 -198t-109 -162.5t-162.5 -109t-198 -40.5zM512 821q-89 0 -169.5 -35t-139 -93.5t-93.5 -139t-35 -169.5q0 -71 22.5 -137.5t62.5 -120.5t94 -94t120.5 -62.5t137.5 -22.5q89 0 169.5 35t139 93.5t93.5 139t35 169.5t-35 169.5t-93.5 139t-139 93.5
t-169.5 35zM512 200q-15 0 -25.5 10.5t-10.5 25.5v62q0 28 14.5 56.5t29 45t41.5 43.5l15 15q5 5 13.5 14.5t13 15.5t9.5 13.5t7 14t2 11.5q0 18 -5.5 35t-15.5 30.5t-23.5 23.5t-30 16t-34.5 6q-23 0 -43 -8.5t-34.5 -23t-23 -34.5t-8.5 -42q0 -15 -11 -25.5t-26 -10.5
t-25.5 10.5t-10.5 25.5q0 75 53.5 127.5t128.5 52.5q49 0 91 -24.5t66.5 -66.5t24.5 -92q0 -25 -13.5 -51.5t-27 -41.5t-40.5 -42q-16 -16 -24.5 -25t-19.5 -22.5t-16 -24.5t-5 -22v-62q0 -15 -10.5 -25.5t-25.5 -10.5z" />
    <glyph glyph-name="uniE618" unicode="&#xe618;" 
d="M940 641q-38 13 -73.5 28t-68.5 32t-63 36.5t-60 42t-58.5 47t-57.5 53.5h-96q-101 -96 -180.5 -148t-200.5 -91v-56v-18q0 -9 0.5 -18t0.5 -17.5t1 -17.5q0 -6 1 -17v-5q1 -13 2 -24.5t3 -23.5q0 -7 2 -23q3 -23 7 -46q0 -1 0.5 -3.5t0.5 -3.5t0.5 -3.5t1 -4t0.5 -2.5
v-4q1 -3 1.5 -6t1.5 -6t1 -5q43 -207 269 -374q75 -55 136 -85q7 3 19 9t48 27t69.5 44.5t76.5 61t77.5 77.5t64 94.5t43.5 110.5q0 3 0.5 5.5t1.5 5t1 4.5t1 5t1 5t1 5.5t1 4.5q1 3 3 13.5t3 16.5q2 10 6 42v5l2 6q0 3 0.5 5.5t1 5.5t0.5 6q1 7 1.5 16.5t0.5 14.5l2 17
q0 3 1 11.5t1 13.5q1 19 1.5 37.5t0.5 37.5v56zM749 403h-190v-286h-96v286h-190v95h190v191h96v-191h190v-95z" />
    <glyph glyph-name="uniE619" unicode="&#xe619;" 
d="M639 11q0 -10 -7.5 -17t-16.5 -7h-193q-10 0 -17.5 7t-7.5 17q0 6 3.5 11.5t9 9t12.5 3.5h193q9 0 16.5 -7t7.5 -17zM615 -26h-193q-13 0 -20 -9.5t-3 -22.5q0 -2 1.5 -3.5t2.5 -3.5t3 -3t4 -2.5t4 -1.5l4 -2h5q10 0 19 -5.5t14 -14.5v-1q14 -27 44 -27h36q14 0 26 7.5
t18 19.5v1q10 20 33 20q6 0 10.5 2t8.5 6t5 8q4 13 -3 22.5t-19 9.5zM518 746q10 0 17 7t7 17v97q0 10 -7 17t-17 7t-17 -7t-7 -17v-97q0 -10 7 -17t17 -7zM262 655q7 -8 17 -8t17 7.5t7 17.5t-7 17l-68 68q-2 2 -5 3.5t-6 2.5t-6 1t-6 -1t-6 -2.5t-5 -3.5q-7 -7 -7 -17
t7 -17zM204 433q0 10 -7 17t-17 7h-96q-10 0 -17 -7t-7 -17t7 -17t17 -7h96q10 0 17 7t7 17zM262 211l-68 -68q-7 -7 -7 -17t7 -17t17 -7t17 7l68 68q4 3 5.5 7.5t1.5 9.5t-1.5 9.5t-5 8t-8 5t-9 1.5t-9 -1.5t-8.5 -5.5zM774 211q-7 7 -17 7t-17 -7q-5 -5 -6.5 -11t0 -12
t6.5 -11l68 -68q2 -3 5 -4.5t6 -2t6 -0.5q10 0 17 7t7 17t-7 17zM952 457h-96q-10 0 -17 -7t-7 -17t7 -17t17 -7h96q5 0 9.5 1.5t7.5 5t5 8t2 9.5q0 10 -7 17t-17 7zM757 647q3 0 6 1t6 2.5t5 4.5l68 68q7 7 7 17t-7 17t-17 7t-17 -7l-68 -68q-5 -5 -6.5 -11t0 -12.5
t6.5 -10.5q7 -8 17 -8zM639 71q0 -10 -7.5 -17t-16.5 -7h-193q-10 0 -17.5 7t-7.5 17t7 16.5t16 7.5q-4 37 -21.5 70t-39.5 58t-43.5 52t-36 64t-14.5 82q0 105 74 179t179 74t179 -74t74 -179q0 -38 -10.5 -70.5t-26.5 -55t-35 -46.5t-36 -44.5t-30.5 -49.5t-16.5 -60
q9 -1 16 -7.5t7 -16.5zM462 606q-1 5 -5 8t-8.5 3.5t-9.5 -1.5q-46 -18 -79.5 -56t-45.5 -87q-1 -4 0 -9t4.5 -8t8.5 -5h2h2q14 0 18 13q7 27 21.5 50t35.5 40.5t46 28.5q7 3 10 9.5t0 13.5z" />
    <glyph glyph-name="uniE61A" unicode="&#xe61a;" 
d="M649 701l-556 -556l-89 -274l274 89l556 556zM220 115l-30 31l459 459l31 -30zM834 886l-122 -122l185 -185l122 121z" />
    <glyph glyph-name="uniE61B" unicode="&#xe61b;" 
d="M579 384q-9 0 -16 -7t-7 -16q0 -8 7 -15t16 -7q12 0 20.5 6.5t8.5 15.5q0 6 -3.5 11.5t-10.5 8.5t-15 3v0zM503 495q9 0 15.5 4t10.5 10.5t4 14.5q0 9 -4 15.5t-10.5 10t-15.5 3.5q-7 0 -13 -2t-10.5 -5.5t-7.5 -9t-3 -12.5q0 -8 5 -14.5t12.5 -10.5t16.5 -4v0zM512 889
q-103 0 -196.5 -40t-161 -107.5t-107.5 -161t-40 -196.5q0 -82 25.5 -159t72 -139.5t109 -109t139.5 -72t159 -25.5q103 0 196.5 40t161 107.5t107.5 161t40 196.5t-40 196.5t-107.5 161t-161 107.5t-196.5 40v0zM417 256q-36 0 -82 13l-83 -42l24 71q-45 32 -69 71t-24 85
q0 55 31.5 100.5t85 71.5t117.5 26q56 0 106 -20.5t84 -58t44 -84.5q-12 2 -22 2q-41 0 -78 -14.5t-63.5 -39.5t-41.5 -59t-15 -72q0 -23 6 -49q-3 -1 -7 -1h-6h-7v0zM760 175l16 -59l-62 36q-7 -2 -18 -4.5t-18 -4t-17 -3t-18 -1.5q-54 0 -99.5 23t-72 61.5t-26.5 85.5
q0 70 57.5 119.5t140.5 49.5q38 0 74.5 -13.5t63.5 -36t43.5 -54t16.5 -65.5q0 -38 -22 -72.5t-59 -61.5v0zM340 553q-14 0 -24.5 -8t-10.5 -21q0 -12 10.5 -20.5t24.5 -8.5q13 0 21.5 8.5t8.5 20.5q0 4 -1 7.5t-2.5 6.5t-3.5 5.5t-4.5 4t-5.5 3t-6 2t-7 0.5v0zM708 384
q-9 0 -16 -7t-7 -16t7 -15.5t16 -6.5q12 0 20.5 6.5t8.5 15.5q0 10 -8.5 16.5t-20.5 6.5v0zM708 384z" />
    <glyph glyph-name="uniE61C" unicode="&#xe61c;" 
d="M982 710h-181v72q0 45 -31.5 77t-75.5 32h-363q-22 0 -42 -9t-34.5 -23.5t-23 -34.5t-8.5 -42v-72h-181q-15 0 -26 -11t-11 -26t11 -25.5t26 -10.5h940q10 0 18.5 5t13.5 13.5t5 17.5q0 15 -11 26t-26 11zM838 565h-652q-4 0 -9 -1t-9 -3.5t-7 -5.5t-5 -6t-3 -6t-2 -6.5
t-1 -7.5v-543q0 -45 32 -77t77 -32h506q45 0 77 32t32 77v543q0 15 -10.5 25.5t-25.5 10.5zM440 58q0 -15 -11 -25.5t-26 -10.5q-9 0 -17.5 5t-13.5 13.5t-5 17.5v398q0 6 2 11.5t5.5 10t8 8t10 5.5t10.5 2q10 0 18.5 -5t13.5 -13.5t5 -18.5v-398zM657 58q0 -9 -5 -17.5
t-13.5 -13.5t-17.5 -5q-15 0 -26 10.5t-11 25.5v398q0 10 5 18.5t13.5 13.5t18.5 5q15 0 25.5 -11t10.5 -26v-398z" />
    <glyph glyph-name="uniE61D" unicode="&#xe61d;" 
d="M620 97q-15 0 -25.5 10.5t-10.5 25.5v395q0 15 10.5 25.5t25.5 10.5q4 0 7.5 -0.5t6.5 -2t6 -3.5t5.5 -4.5t4.5 -5.5t3 -6t2 -6.5t1 -7.5v-395q0 -15 -10.5 -25.5t-25.5 -10.5zM404 97q-15 0 -25.5 10.5t-10.5 25.5v395q0 15 10.5 25.5t25.5 10.5q10 0 18 -5t13 -13
t5 -18v-395q0 -15 -10.5 -25.5t-25.5 -10.5zM979 708h-179v72q0 44 -31.5 76t-75.5 32h-361q-44 0 -76 -32t-32 -76v-72h-179q-15 0 -25.5 -10.5t-10.5 -25.5q0 -5 1 -9.5t3.5 -8.5t5.5 -7.5t7 -5.5t9 -3.5t10 -1.5h934q10 0 18.5 5t13 13t4.5 18q0 4 -1 8t-2.5 7.5t-4 7
t-5.5 5.5t-6.5 4t-7.5 3t-9 1zM296 780q0 15 10.5 25.5t25.5 10.5h361q14 0 24.5 -10.5t10.5 -25.5v-72h-432v72zM764 -119h-504q-44 0 -75.5 31.5t-31.5 76.5v540q0 14 10.5 25t25 11t25 -11t10.5 -25v-540q0 -15 11 -25.5t25 -10.5h504q15 0 25.5 10.5t10.5 25.5v538
q0 15 10.5 25.5t25.5 10.5q10 0 18 -5t13 -13t5 -18v-538q0 -45 -32 -76.5t-76 -31.5z" />
    <glyph glyph-name="uniE61E" unicode="&#xe61e;" 
d="M396 131v-253h417l179 190v568h-358v253h-596v-758h358zM813 -32v100h94zM932 573v-442h-179v-189h-298v189l179 189v253h298zM455 220v100h95zM98 826h476v-442h-178v-190h-298v632zM203 716h294v-65h-294v65zM203 540h294v-65h-294v65zM682 417h168v-65h-168v65z
M642 255h208v-65h-208v65zM203 363h139v-65h-139v65z" />
    <glyph glyph-name="uniE61F" unicode="&#xe61f;" 
d="M512 894q-104 0 -198 -40.5t-162.5 -109t-109 -162.5t-40.5 -198t40.5 -198t109 -162.5t162.5 -109t198 -40.5t198 40.5t162.5 109t109 162.5t40.5 198t-40.5 198t-109 162.5t-162.5 109t-198 40.5zM720 227q11 -11 11 -26t-11 -25q-5 -6 -12 -8.5t-14 -2.5q-15 0 -26 11
l-156 157l-157 -156q-11 -10 -26 -10t-25.5 10.5t-10.5 25.5t11 26l156 155l-156 157q-11 11 -10.5 26t11 25.5t25.5 10.5t26 -11l156 -157l157 156q6 5 12.5 7.5t13.5 2.5t14 -2.5t12 -7.5q10 -11 10 -26t-11 -26l-156 -155z" />
    <glyph glyph-name="uniE620" unicode="&#xe620;" 
d="M325 125v509q0 21 15 36t36 15q10 0 18.5 -3.5t15.5 -9.5l336 -252q16 -13 19 -33.5t-9 -37.5l-4 -3q-1 -2 -2.5 -4t-3.5 -3l-340 -254q-16 -13 -37 -10t-33 20q-11 13 -11 30v0z" />
    <glyph glyph-name="uniE621" unicode="&#xe621;" 
d="M512 -124q-11 0 -19 8t-8 19v962q0 11 8 19t19 8q5 0 10 -2.5t8.5 -6t6 -8.5t2.5 -10v-962q0 -11 -8 -19t-19 -8v0zM993 357h-962q-11 0 -19 8t-8 19t8 19t19 8h962q11 0 19 -8t8 -19t-8 -19t-19 -8z" />
    <glyph glyph-name="uniE622" unicode="&#xe622;" 
d="M512 896q-139 0 -257 -68.5t-186.5 -186.5t-68.5 -257t68.5 -257t186.5 -186.5t257 -68.5t257 68.5t186.5 186.5t68.5 257t-68.5 257t-186.5 186.5t-257 68.5zM785 350h-546q-14 0 -24 10t-10 24t10 24t24 10h546q14 0 24 -10t10 -24t-10 -24t-24 -10z" />
    <glyph glyph-name="uniE623" unicode="&#xe623;" horiz-adv-x="1028" 
d="M1003 78l-399 692q-37 63 -89 63t-89 -63l-400 -692q-36 -64 -10 -109t99 -45h799q74 0 100 45t-11 109zM459.5 573.5q21.5 23.5 55.5 23.5q11 0 21 -2.5t18 -8t16 -12.5q21 -23 21 -58q0 -6 -5 -36t-11 -66.5t-13 -85t-11 -84.5h-71q-3 36 -10.5 84.5t-14 85t-12 66.5
t-5.5 36q0 34 21.5 57.5zM568.5 69q-7.5 -7 -16 -12t-18 -7.5t-19.5 -2.5q-31 0 -54 22t-23 53.5t23 54t54 22.5t54 -23q11 -11 16.5 -24.5t5.5 -29.5q0 -10 -2.5 -19.5t-7.5 -18t-12.5 -15.5z" />
    <glyph glyph-name="uniE624" unicode="&#xe624;" 
d="M528 815l-262 -168h-131q-55 0 -93.5 -38.5t-38.5 -93.5v-262q0 -55 38.5 -93.5t93.5 -38.5h131l262 -168q28 -12 47 -1t19 39v787q0 13 -5 23t-14 15t-21 5t-26 -6v0zM528 815zM749 603q-9 10 -22.5 10.5t-23.5 -8.5t-10.5 -22.5t9.5 -23.5q13 -15 27 -43
q29 -60 29 -132q0 -25 -3.5 -48.5t-10 -43.5t-15.5 -40q-8 -15 -15 -26t-12 -17q-7 -6 -9 -14.5t1 -17t9 -14.5q10 -9 23.5 -8.5t23.5 10.5q19 21 38 59q5 9 9 19.5t8 21.5t7 22t5 23t3.5 24t2.5 24.5t1 25.5q0 87 -36 161q-19 38 -39 58v0zM749 603zM951 644q-19 31 -38 55
t-34 38q-7 6 -15.5 7.5t-17 -1t-14.5 -9.5q-9 -10 -8 -23.5t11 -22.5q7 -6 18 -19q22 -26 41 -58q61 -104 61 -227t-61 -227q-19 -32 -42 -58q-10 -13 -17 -19q-10 -9 -11 -22.5t8 -23.5t22.5 -11t24.5 8q36 33 72 93q70 119 70 260q0 72 -18 137.5t-52 122.5zM951 644z" />
    <glyph glyph-name="uniE625" unicode="&#xe625;" horiz-adv-x="1025" 
d="M512 896q-104 0 -199 -40.5t-163.5 -109t-109 -163.5t-40.5 -199q0 -83 26 -161.5t73 -141.5t110 -110t141.5 -73t161.5 -26t161.5 26t141.5 73t110 110t73 141.5t26 161.5q0 42 -7 83t-19.5 79t-31 73.5t-41.5 67t-51 59.5t-59.5 51t-67 41.5t-73.5 31.5t-79 19.5
t-83 6.5zM806 517l-331 -331q-12 -12 -28 -13.5t-29 6.5q-5 3 -9 7l-191 190q-9 9 -12 21t0 24t12 21q6 5 12.5 8.5t13.5 4.5t14 0t14 -4.5t12 -8.5l158 -158l298 298q14 14 33 14t32.5 -13.5t13.5 -33t-13 -32.5z" />
    <glyph glyph-name="uniE626" unicode="&#xe626;" 
d="M512 894q-104 0 -198.5 -40t-163 -108.5t-108.5 -163t-40 -198.5t40 -198.5t108.5 -163t163 -108.5t198.5 -40t198.5 40t163 108.5t108.5 163t40 198.5t-40 198.5t-108.5 163t-163 108.5t-198.5 40zM820 459l-306 -306q-19 -19 -45.5 -19t-44.5 19l-157 156
q-18 18 -18 44.5t18 45.5l12 11q9 10 21 14.5t24 4.5t24 -4.5t21 -14.5l55 -54l44 -45q22 21 46 45l205 204q5 6 11.5 9.5t13 6t13.5 3t14 0t13.5 -3t13 -6t11.5 -9.5l11 -11q19 -19 19 -45.5t-19 -44.5z" />
    <glyph glyph-name="uniE627" unicode="&#xe627;" 
d="M512 888q-82 0 -159 -25.5t-139 -72t-108.5 -108.5t-72 -139t-25.5 -159q0 -102 40 -195.5t107.5 -161t160.5 -107.5t196 -40t196 40t160.5 107.5t107.5 161t40 196t-40 195.5t-107.5 160.5t-160.5 107.5t-196 40zM723 253q16 -16 16 -39.5t-16 -40.5q-9 -8 -19 -12.5
t-21.5 -4.5t-21.5 4.5t-19 12.5l-130 131l-131 -131q-8 -8 -18.5 -12.5t-21.5 -4.5q-7 0 -14 2t-13.5 6t-12.5 9q-8 8 -12 19t-4 21.5t4 21t12 18.5l131 131l-131 130q-16 17 -16 40.5t16.5 40t40 16.5t40.5 -16l130 -131l131 131q16 16 39.5 16t40.5 -16.5t17 -40
t-17 -39.5l-131 -131z" />
    <glyph glyph-name="uniE628" unicode="&#xe628;" 
d="M599 93l275 255q16 14 16 35t-15 35l-275 257q-14 14 -34 13t-33.5 -15.5t-13 -34t15.5 -33.5l274 -257v70l-276 -255q-14 -13 -15 -33t12.5 -34.5t33.5 -15.5t35 13zM215 93l275 255q16 14 16 35t-15 35l-275 257q-14 14 -34 13t-33.5 -15.5t-13 -34t15.5 -33.5
l274 -257v70l-276 -255q-14 -13 -15 -33t12.5 -34.5t33.5 -15.5t35 13z" />
    <glyph glyph-name="uniE629" unicode="&#xe629;" 
d="M491 163l-276 255v-70l274 257q10 9 13.5 21.5t1 24.5t-11.5 22q-14 14 -34 15t-34 -13l-275 -257q-6 -5 -9.5 -12.5t-4.5 -15t0 -15t5 -14.5t10 -13l275 -255q15 -14 35 -13t33.5 15.5t12.5 34.5t-15 33zM875 163l-276 255v-70l274 257q10 9 13.5 21.5t1 24.5
t-11.5 21.5t-21.5 13.5t-25 1t-21.5 -12l-275 -257q-7 -7 -11 -16t-4 -18.5t4 -19t12 -16.5l275 -255q10 -9 22.5 -12t24.5 1t21 13q14 15 13 35t-15 33z" />
    <glyph glyph-name="uniE62A" unicode="&#xe62a;" 
d="M512 896q-138 0 -256 -69t-187 -187t-69 -256t69 -256t187 -187t256 -69t256 69t187 187t69 256t-69 256t-187 187t-256 69zM512 -43q-118 0 -216 56.5t-154.5 154.5t-56.5 216t56.5 216t154.5 154.5t216 56.5t216 -56.5t154.5 -154.5t56.5 -216t-56.5 -216
t-154.5 -154.5t-216 -56.5zM725 597q-5 5 -11 8.5t-12.5 4.5t-12.5 0t-12 -4.5t-11 -8.5l-154 -153l-154 153q-8 9 -18.5 12t-21.5 0t-19 -12q-13 -12 -13 -29.5t13 -29.5l153 -154l-153 -154q-13 -12 -13 -29.5t13 -29.5q8 -9 19 -12t21.5 0t18.5 12l154 153l154 -153
q8 -9 18.5 -12t21.5 0t19 12q5 4 7.5 9t4 10t1.5 10.5t-1.5 10.5t-4 10t-7.5 9l-153 154l153 154q3 3 5.5 6.5t4.5 7t2.5 8t0.5 8t-0.5 7.5t-2.5 8t-4.5 7.5t-5.5 6.5z" />
    <glyph glyph-name="uniE62B" unicode="&#xe62b;" 
d="M512 -125q-102 0 -195 40t-160 107t-107 160t-40 195t40 195t107 160.5t160 107.5t195 40t195 -40t160 -107.5t107 -160.5t40 -195t-40 -195t-107 -160t-160 -107t-195 -40zM512 860q-98 0 -187.5 -38.5t-154 -103t-102.5 -154t-38 -187.5t38 -187t102.5 -153.5t154 -103
t187.5 -38.5t187.5 38.5t154 103t102.5 153.5t38 187t-38 187.5t-102.5 154t-154 103t-187.5 38.5zM775 271q-2 20 -9 40t-17.5 37.5t-19 29t-19.5 22.5q2 4 2.5 12t0.5 19t-5.5 24t-15.5 23v2q0 83 -52 138t-128 55q-37 0 -70 -14.5t-57.5 -40t-38.5 -61.5t-14 -77v-2
q-10 -10 -15.5 -23t-5.5 -24t0.5 -19t2.5 -12q-11 -11 -19.5 -22.5t-19 -29t-17.5 -37.5t-9 -40q-1 -33 9 -47q5 -5 13.5 -3t19 13.5t18.5 29.5q10 -36 42 -78q-20 -4 -32.5 -18t-13.5 -29t5 -27q19 -30 73 -30q83 0 117 32q4 5 12 5t12 -5q14 -13 41.5 -22.5t75.5 -9.5
q54 0 73 30q6 12 5 27t-13.5 29t-32.5 18q32 42 42 78q8 -18 19 -29.5t19 -13.5t13 3q10 14 9 47v0zM775 271z" />
    <glyph glyph-name="uniE62D" unicode="&#xe62d;" 
d="M1016 506q-7 21 -29 24l-305 47l-136 292q-10 21 -33 21q-11 0 -19.5 -5.5t-13.5 -15.5l-138 -292l-306 -45q-21 -4 -28 -25q-2 -5 -2 -9.5t1 -9.5t3.5 -9.5t5.5 -7.5l222 -228l-53 -322q-1 -10 3 -19.5t12 -15.5q19 -13 38 -2l273 150l273 -151q4 -3 8.5 -4t8.5 -1
q12 0 21 7q19 13 15 35l-52 322l223 227q15 16 8 37z" />
    <glyph glyph-name="uniE62E" unicode="&#xe62e;" 
d="M1016 506q-7 21 -29 24l-305 47l-136 292q-10 21 -33 21q-11 0 -19.5 -5.5t-13.5 -15.5l-138 -292l-306 -45q-21 -4 -28 -25q-2 -5 -2 -9.5t1 -9.5t3.5 -9.5t5.5 -7.5l222 -228l-53 -322q-1 -10 3 -19.5t12 -15.5q19 -13 38 -2l273 150l273 -151q4 -3 8.5 -4t8.5 -1
q12 0 21 7q19 13 15 35l-52 322l223 227q15 16 8 37zM721 279q-13 -13 -10 -31l43 -266l-225 125q-8 4 -17.5 4t-17.5 -4l-225 -124l44 266q1 8 -1.5 16.5t-8.5 14.5l-187 192l255 37q2 0 4 0.5t4 1.5q14 5 21 19l113 239l112 -240q8 -18 27 -21l255 -39z" />
    <glyph glyph-name="uniE630" unicode="&#xe630;" 
d="M513 -122q-102 0 -195.5 40t-161 107t-107 160.5t-39.5 195.5t39.5 195.5t107 160.5t161 107t195.5 40t195 -40t160.5 -107t107.5 -160.5t40 -195.5t-40 -195.5t-107.5 -160.5t-160.5 -107t-195 -40zM513 865q-98 0 -188 -38.5t-154.5 -103.5t-103 -154.5t-38.5 -187.5
q0 -79 24.5 -152.5t69 -133t104 -104.5t133.5 -69.5t153 -24.5t152.5 24.5t133 69.5t104.5 104.5t69.5 133t24.5 152.5t-24.5 152.5t-69.5 133t-104.5 104.5t-133 69.5t-152.5 24.5zM663 388q-10 2 -13.5 6.5t-0.5 7.5l2 3q3 5 6 12t2.5 25.5t-13.5 30.5q-20 16 -47 15
t-51 -10l-23 -9q-22 -7 -24 1.5t4 28.5q0 10 -1.5 19t-7.5 19.5t-16 15.5t-28.5 5t-43.5 -9q-25 -8 -50.5 -25t-45 -35.5t-35 -35.5t-23.5 -28l-9 -11q-23 -31 -34 -61.5t-11 -46.5v-15q5 -42 28 -73.5t59.5 -48.5t72.5 -25.5t78 -11.5q39 -3 82 3.5t82.5 22t72 41.5
t47.5 58q24 44 9.5 73t-32.5 41.5t-36 16.5zM445 165q-77 -3 -131 30.5t-54 84.5t54 88t131 41q79 3 132.5 -26.5t53.5 -79.5q0 -52 -55 -93t-131 -45zM425 363q-29 -3 -49 -15.5t-28 -27.5t-12 -30t-3 -25l1 -10q-1 -4 0 -9.5t7.5 -17.5t19.5 -19q47 -23 88 -14t66 41
q12 16 13.5 39t-7.5 44.5t-34.5 35t-61.5 8.5zM399 228q-10 -1 -18 2t-12.5 9t-4.5 14q0 6 2.5 12t6.5 10.5t10.5 8t13.5 4.5q8 0 15 -1.5t11.5 -5.5t7 -9t2.5 -11q0 -12 -10 -21.5t-24 -11.5zM459 280q-11 -9 -18 1q-2 4 -1 10t6 10q12 9 19 -2q6 -10 -6 -19zM714 429
q13 2 16 15v1q4 32 -4.5 53.5t-22.5 29t-29 11t-26 1.5l-10 -1q-3 0 -5 -0.5t-4 -1.5t-3.5 -2.5t-2.5 -3.5t-1.5 -4.5t-0.5 -4.5q0 -4 2 -8t6 -6.5t9 -2.5q22 5 35 1t18 -14t6.5 -20t0.5 -18l-1 -8q0 -7 5 -12t12 -5zM701 627q-36 9 -84 -1h-1l-1 -1h-1q-18 -5 -18 -24
q0 -10 7.5 -17.5t17.5 -7.5h1q1 1 4 1.5t5.5 1t5.5 1.5l6 2q7 2 27 0t49 -17t46 -44q9 -20 10.5 -41t0.5 -26.5t-4 -13.5v-2l-1 -3t-1.5 -5.5t-1 -6.5t-0.5 -7q0 -10 7 -16t17 -6q7 0 11 1t7.5 6t5.5 14q12 51 8 87.5t-25.5 63t-46 41t-51.5 20.5z" />
    <glyph glyph-name="uniE631" unicode="&#xe631;" 
d="M134 424q10 0 18 4.5t12.5 12.5t4.5 18q0 14 -10 24t-25 10h-73l-5 1q-19 0 -32.5 -14t-13.5 -33l-1 -505q0 -12 6.5 -22.5t17 -16.5t22.5 -6l2 -1h3q2 0 2 1l71 -1q1 0 1 1h1h-1h5q6 1 11 4t9 7.5t6 10t2 11.5t-2 12t-6 10t-9 7t-11 4v1h-59l1 460h53zM996 474
q-33 53 -98 55q-4 1 -7 1l-233 1q12 36 18 73.5t6 72.5q0 16 -1 32t-3.5 32.5t-5.5 32.5l-2 3q-11 42 -44.5 68.5t-76.5 26.5q-32 0 -58.5 -17t-41.5 -46t-15 -65v-4v-4v-3q-2 -60 -32 -112t-80.5 -85t-112.5 -40l-4 -1l-1 -327v-272h17h1h3h589q27 0 58 20q7 5 13.5 10.5
t12 12t10.5 13.5t9 14t6 15l90 401q1 3 1.5 7t-0.5 8q2 20 -3 40t-15 37zM949 412l-1 -5l-95 -423q-4 -10 -13 -16l-7 -4q-3 -1 -7 -1h-1h-4h-551v467q27 13 46.5 22.5t42.5 23.5t40 28.5t34.5 33.5t31 42t23.5 50l1 4q3 7 5 14l2 12q2 7 4 13q6 36 6 69q-3 24 10 40
q15 17 37 17q19 -1 36.5 -21t17.5 -37q7 -34 7 -65q0 -15 -1 -29t-2 -20.5t-2 -12.5h-1v-4q-3 -13 -6.5 -25.5t-7.5 -25.5t-9.5 -25t-11.5 -24l-1 -3q-2 -4 -3 -8.5t-1 -9.5q0 -10 5 -16.5t14 -9t15 -3t16 -0.5l286 -1h5v-1l6 1q5 0 9.5 -1.5t8 -3.5t7 -5t5.5 -7
q9 -14 4 -30z" />
    <glyph glyph-name="uniE632" unicode="&#xe632;" 
d="M513 -122q-102 0 -195.5 39.5t-161 107t-107 161t-39.5 195.5t39.5 195t107 160.5t161 107.5t195.5 40t195 -40t160.5 -107.5t107.5 -160.5t40 -195t-40 -195.5t-107.5 -161t-160.5 -107t-195 -39.5zM513 865q-79 0 -153 -24.5t-133.5 -69.5t-104 -104.5t-69 -133
t-24.5 -152.5t24.5 -152.5t69 -133t104 -104.5t133.5 -69.5t153 -24.5t152.5 24.5t133 69.5t104.5 104.5t69.5 133t24.5 152.5q0 98 -38.5 187.5t-103.5 154.5t-154.5 103.5t-187.5 38.5zM628 455h6q3 0 6 -0.5t5.5 -0.5t5.5 -1q-15 74 -85 122.5t-160 48.5q-100 0 -171 -60
t-71 -147q0 -48 25 -89.5t72 -74.5l-24 -73l84 43q4 -1 17 -3.5t18.5 -3.5t15 -2.5t18 -2t16.5 -0.5q11 0 23 1q-4 12 -5.5 25t-1.5 26q0 79 60 135.5t146 56.5zM498 521q13 0 21.5 -8.5t8.5 -22t-8.5 -22t-21.5 -8.5q-15 0 -26 8.5t-11 22t11 22t26 8.5zM328 460
q-15 0 -26 8.5t-11 21.5q0 7 3 13t8.5 9.5t12 6t13.5 2.5q13 0 21.5 -8.5t8.5 -22t-8.5 -22t-21.5 -8.5zM850 266q0 72 -62 124t-145 52q-86 0 -146 -51.5t-60 -125t60 -125t146 -51.5q12 0 25.5 2t22.5 4.5t25 6.5l67 -37l-18 61q85 64 85 140zM576 296q-9 0 -16.5 7.5
t-7.5 16.5t7.5 17t16.5 8q14 0 22.5 -7.5t8.5 -17.5q0 -2 -1 -4l-2 -6q-1 -2 -3 -4.5t-5 -3.5l-6 -4q-3 -1 -6.5 -1.5t-7.5 -0.5zM710 296q-9 0 -16.5 7.5t-7.5 16.5q0 6 3.5 12t9 9.5t11.5 3.5q13 0 21.5 -7.5t8.5 -17t-8.5 -17t-21.5 -7.5z" />
    <glyph glyph-name="uniE633" unicode="&#xe633;" 
d="M927 828h-830q-37 0 -63.5 -26t-26.5 -64v-608q0 -37 26.5 -63.5t63.5 -26.5h301l114 -113l114 113h301q37 0 63.5 26.5t26.5 63.5v608q0 25 -12.5 45.5t-33 32.5t-44.5 12zM947 711v-553q0 -10 -3.5 -19t-10 -15.5t-15.5 -10t-19 -3.5h-307l-80 -81l-80 81h-307
q-20 0 -34 14t-14 34v553q0 20 14 34t34 14h774q20 0 34 -14t14 -34zM263 506h522q5 0 10 2t9 5t7 7t4.5 9t1.5 10q0 14 -9.5 24t-22.5 10h-522q-13 0 -22.5 -10t-9.5 -23.5t9.5 -23.5t22.5 -10zM785 396h-522q-13 0 -22.5 -10t-9.5 -23q0 -7 2.5 -13t7 -10.5t10.5 -7
t12 -2.5h522q13 0 22.5 9.5t9.5 23t-9.5 23.5t-22.5 10z" />
    <glyph glyph-name="uniE635" unicode="&#xe635;" 
d="M737 841q-39 0 -76 -15.5t-65.5 -41.5t-47.5 -48.5t-34 -46.5q-16 24 -35 46.5t-47.5 48.5t-65.5 41.5t-75 15.5q-59 0 -112 -25.5t-91.5 -68t-61 -101t-22.5 -123.5q0 -61 36 -137.5t87 -122.5q44 -57 132.5 -138.5t164 -139.5t91.5 -58q9 0 42.5 22.5t79.5 60
t94.5 80.5t94.5 89.5t73 81.5q52 47 88 124t36 138q0 86 -38 159.5t-104 116t-144 42.5z" />
    <glyph glyph-name="uniE636" unicode="&#xe636;" 
d="M737 841q-39 0 -76 -15.5t-65.5 -41.5t-47.5 -48.5t-34 -46.5q-16 24 -35 46.5t-47.5 48.5t-65.5 41.5t-75 15.5q-59 0 -112 -25.5t-91.5 -68t-61 -101t-22.5 -123.5q0 -61 36 -137.5t87 -122.5q44 -57 132.5 -138.5t164 -139.5t91.5 -58q9 0 42.5 22.5t79.5 60
t94.5 80.5t94.5 89.5t73 81.5q52 47 88 124t36 138q0 86 -38 159.5t-104 116t-144 42.5zM956 523q0 -49 -31 -112t-73 -101q-2 -2 -4 -5q-56 -72 -154 -157.5t-179 -145.5q-46 34 -95 72.5t-124 107.5t-117 124l-4 4q-21 19 -40 45.5t-33 55.5t-22 58.5t-8 53.5
q0 104 64 177t155 73q54 0 106.5 -49.5t85.5 -118.5q9 -18 31 -18t30 18q21 44 50 81t67.5 62t75.5 25q59 0 109.5 -33.5t80 -91t29.5 -125.5z" />
    <glyph glyph-name="uniE63A" unicode="&#xe63a;" 
d="M950 88zM870 742q-97 98 -227.5 132.5t-261 0t-228 -132t-132 -228t0 -261t132.5 -227.5q72 -73 167 -111t191 -38t191 38t167 111q132 131 147 316q15 184 -90 333q-25 36 -57 67zM819 77q-83 -83 -195 -112.5t-224 0t-195 112.5t-112.5 195t0 224t112.5 195
q36 36 78.5 62.5t88 41.5t93 20.5t95 0t93 -20.5t88 -41.5t78.5 -62.5q127 -127 127 -307t-127 -307zM354 437q15 0 27.5 7.5t19.5 20t7 27.5q0 11 -4 21t-11.5 17.5t-17.5 12t-21 4.5t-21 -4.5t-17.5 -12t-12 -17.5t-4.5 -21t4.5 -21t12 -17.5t17.5 -12t21 -4.5zM668 437
q11 0 21 4.5t17.5 12t12 17.5t4.5 21q0 23 -16 39t-38.5 16t-38.5 -16t-16 -39t16 -39t38 -16zM670 254l-3 -1q-74 -33 -156 -33q-84 0 -158 33l-3 1q-4 2 -7 2q-14 0 -23.5 -9.5t-9.5 -23.5q0 -6 3 -12t8 -11l-1 -2l9 -4q43 -20 89.5 -30t93.5 -10q31 0 62 4.5t61 13.5
t60 22q17 10 17 29q0 16 -12.5 26t-29.5 5z" />
    <glyph glyph-name="uniE64D" unicode="&#xe64d;" 
d="M828 409l-316 489l-294 -469q-68 -91 -68 -204q0 -96 49 -177t133.5 -128t184 -47t183.5 47t133 128t49 177q0 99 -54 184zM516 1q-60 0 -111.5 27t-82.5 74q58 -37 128 -37q96 0 164 65.5t68 158.5q0 34 -9.5 65t-28.5 58q24 -15 43 -35t33 -44t21.5 -51.5t7.5 -56.5
q0 -46 -18.5 -87.5t-49.5 -71.5t-74.5 -47.5t-90.5 -17.5z" />
    <glyph glyph-name="uniE64E" unicode="&#xe64e;" 
d="M512 895q-54 0 -106 -14.5t-96 -40.5t-81 -63t-63 -81t-40.5 -96t-14.5 -106q0 -91 39 -171.5t106 -136.5v-311l256 191l256 -191v311q67 56 106 136.5t39 171.5q0 82 -32 156t-85.5 127.5t-128 85.5t-155.5 32zM512 239q-106 0 -180.5 74.5t-74.5 180.5t74.5 180.5
t180.5 74.5q69 0 128 -34t93 -93t34 -128q0 -106 -74.5 -180.5t-180.5 -74.5z" />
    <glyph glyph-name="uniE64F" unicode="&#xe64f;" 
d="M41 803l990 -990v990h-990zM829 516l24 -1q1 -29 0 -61l-26 2q2 32 2 60zM468 636q9 -12 17 -21q12 -11 23 0l25 25q-22 11 -39 21l14 20l42 -24l33 33l-31 30l15 15l30 -31l32 32l17 -16l-32 -32l25 -25l-15 -15l-25 25l-28 -28q7 -4 15 -8l16 -8l-16 -16q-2 0 -32 16
l-31 -32q-26 -26 -50 -1q-10 9 -20 20zM395 565q38 9 68 21l9 -21l-22 -8q-11 -4 -23 -7.5t-25 -6.5q-1 5 -3 10.5t-4 11.5zM490 475l-22 9l8 20q4 10 7.5 20t6.5 19l20 -8q-8 -28 -20 -60zM516 567q9 -2 18 -3.5t17.5 -2t17.5 1t17.5 3.5t17.5 6q-4 21 -8 40l21 3
q3 -13 8 -32q17 11 35 28l-26 27l15 15l27 -26q9 8 17 16t15 16l17 -17q-15 -14 -33 -32l50 -50q-66 -61 -83 -89q-10 -15 -5 -21q4 -4 13 2q13 9 32 26q5 -12 11 -21q-21 -17 -35 -26q-24 -16 -40 0q-3 4 -5 8t-2.5 9.5t1 11t4.5 12t7 14.5q8 12 25.5 31t44.5 45l-34 33
q-11 -11 -22.5 -20t-23.5 -16l10 -50l-26 -4q-3 22 -6 43q-46 -19 -93 -7v4q0 2 0.5 4t0.5 5v4v4v5zM547 421l-22 9q4 10 7.5 19.5t6.5 19.5l6 20l21 -8q-9 -30 -19 -60zM584 370q10 33 18 71l22 -6q-2 -11 -4.5 -23t-5.5 -24l-6 -24zM620 325l166 167l17 -17l-166 -167z
M834 177q-31 -31 -60 -1l-4 4l-6 6l-5 5l-6 6l-7 7l-6 6q3 4 6.5 9.5t7.5 12.5q10 -11 18 -20t15 -16q16 -16 32 1l143 143l-99 99l17 16l116 -116z" />
    <glyph glyph-name="uniE650" unicode="&#xe650;" 
d="M538 596l77 -77l15 15l-77 77zM582 639l-15 -15l77 -77l15 15zM38 894l990 -990v990h-990zM873 581l7 -23q-8 -2 -16.5 -3.5t-16.5 -2.5l-16 -2l-84 -84l-17 17l65 65h-19l-18 2q-10 0 -20 2l4 12l4 12q32 -5 64 -4t63 9zM709 706l19 19l15 -16l-19 -19l57 -56l-14 -14
l-57 57l-14 -15l50 -50l-13 -13l-50 50l-15 -15l59 -60l-13 -13l-131 130l14 14l55 -56l15 15l-47 47l14 13l47 -46l14 14l-52 52l13 14zM650 759q-15 -8 -30.5 -15t-30.5 -13l-7 19q31 11 60 28zM571 840l17 -8q-14 -30 -29 -59l-19 8q19 34 31 59zM412 616l91 91
q-45 -20 -88 -30q3 6 5.5 12t5.5 12q17 4 34.5 9t35 12t34.5 16l-31 31l14 13l32 -32l79 78l14 -14l-78 -79l27 -27l-13 -14l-28 28l-27 -27l15 -1q0 -36 -1 -60l-22 1q2 15 2.5 29t1.5 26l-89 -88zM557 477l-35 35q6 8 13 20q19 -21 32 -34q13 -14 25 -3l10 10l-77 77
l-39 -38l-15 15l109 109l108 -108l-84 -84q-23 -23 -47 1zM862 274l-95 96l-55 -55l-17 17l54 55l-95 95l16 15l95 -95l28 29l18 -17l-29 -29l95 -95zM983 417q-25 4 -52 10.5t-56 16.5l-17 -18q-15 -14 3 -32l23 -23q16 -16 32 -5q8 5 15 10.5t13 11.5q3 -7 5.5 -13
t5.5 -10q-8 -6 -15 -11t-14 -9q-13 -10 -27 -8t-27 15l-32 33q-29 28 -2 55l13 13q-15 6 -29.5 12t-29.5 14q4 12 7 25q11 -6 22.5 -12.5t23 -11.5t23.5 -10l54 54l17 -17l-47 -46q24 -8 47 -13t46 -6z" />
    <glyph glyph-name="uniE651" unicode="&#xe651;" 
d="M529 631l-16 -16l49 -48l16 15zM486 588l49 -48l16 15l-49 49zM38 893l991 -990v990h-991zM630 787l41 -41l16 16l14 -15l-15 -16l37 -37l15 16l15 -15l-16 -15l47 -47l-13 -13l-46 47l-14 -14l-15 15l14 14l-37 37l-14 -14l-14 15l13 13l-40 41zM656 623l-6 -6l-12 13
l45 45l60 -59l-46 -46l-13 13l6 6zM604 840q1 -7 1.5 -13.5t1.5 -13.5t1 -13l2 -14v-13h-25q-1 33 -3 67h22zM607 751l59 -59l-45 -45l-13 13l5 6l-32 32l-6 -6l-13 13zM541 791q3 -16 5 -32l4 -32l-25 -2q-1 7 -1 13l-2 14v12q-1 7 -2 13.5t-2 12.5zM391 652q50 25 105 62
q5 -13 10 -24q-52 -32 -102 -62zM620 486l-54 54l-16 -15l62 -62l-11 -12l-126 126l-10 -10l-15 15l75 74h-35q2 5 3.5 10.5t1.5 11.5q47 -2 93 6l7 -20q-12 -2 -20 -3l38 -39q3 11 5 23l20 -6q-4 -17 -8 -33l60 -60l-11 -11l-60 59l-15 -16l54 -54l-11 -11l-54 54l-16 -15
l54 -55zM635 465q99 3 169 44l-57 57l17 17l74 -74l-16 -16q-44 -26 -91 -39.5t-96 -14.5q1 15 0 26zM859 400q-16 -73 -3 -142q-18 0 -31 -2q-12 101 25 195l-100 -100q-16 -16 -31.5 -16.5t-31.5 14.5q-10 10 -28 29q7 8 16 22q6 -6 10.5 -11.5t8.5 -10t8 -7.5
q16 -17 32 -1l174 173l17 -17l-34 -34q-16 -35 -26 -68q44 -4 95 0l1 -28q-51 -1 -102 4zM604 609l-48 49l-16 -16l49 -49zM642 694l-32 33l-18 -18l32 -33zM719 618l-34 34l-18 -18l34 -34z" />
    <glyph glyph-name="uniE652" unicode="&#xe652;" 
d="M5 892v-1016l1015 1016h-1015zM101 758h29v-260h-29v260zM205 592q0 -129 -67 -197q-7 7 -13.5 12t-12.5 9q8 8 14.5 16.5t12.5 17.5t11 19.5t9 21.5t7 23t5 24.5t3 26t1 28.5v194h30v-195zM455 684v-179q0 -14 -5 -24t-14 -15t-23 -5q-7 0 -16.5 0.5t-20.5 0.5
q0 4 -0.5 8t-1.5 7.5t-2 7.5t-1 8q22 -3 32 -3q11 0 16.5 4.5t5.5 14.5v147h-61v-259h-30v259h-60v-201h-29v229h89v58h-103v27h242v-27h-109v-58h91z" />
    <glyph glyph-name="uniE653" unicode="&#xe653;" 
d="M995 471q-32 53 -98 55q-1 1 -3 1h-3l-232 1q4 12 7 24t6 24.5t5 24.5t3.5 24.5t2 24.5t0.5 23q0 49 -10 97l-2 3q-7 28 -24.5 49.5t-42.5 33t-53 11.5q-24 0 -45.5 -9.5t-37 -26.5t-24 -40.5t-8.5 -50.5v-4q-1 -5 0 -7q-2 -59 -31.5 -111t-80.5 -85t-112 -40l-4 -1
l-1 -325v-270h17l1 -1h3v1h586q12 0 21 2t17 6t20 11q14 9 25.5 22t18.5 28q5 7 7 15l89 398q2 8 1 15q3 42 -18 78v-1zM181 -59q0 -19 -13 -32t-32 -13h-78q-19 0 -32 13t-13 32v506q0 18 13 31t32 13h78q9 0 17.5 -3.5t14.5 -9.5t9.5 -14t3.5 -17v-506z" />
    <glyph glyph-name="uniE654" unicode="&#xe654;" 
d="M929 834h-835q-24 0 -45 -12.5t-33 -33t-12 -45.5v-612q0 -38 26.5 -64.5t63.5 -26.5h303l115 -114l114 114h303q37 0 63.5 26.5t26.5 64.5v612q0 37 -26.5 64t-63.5 27zM788 331h-526q-6 0 -12 3t-10.5 7.5t-7 10.5t-2.5 13q0 14 9.5 23.5t22.5 9.5h526q13 0 22.5 -9.5
t9.5 -23.5t-9.5 -24t-22.5 -10zM788 509h-526q-8 0 -15.5 4.5t-12 12.5t-4.5 17q0 13 9.5 23t22.5 10h526q13 0 22.5 -10t9.5 -23.5t-9.5 -23.5t-22.5 -10z" />
    <glyph glyph-name="uniE655" unicode="&#xe655;" 
d="M894 339q-15 0 -25.5 -10.5t-10.5 -24.5q0 -10 5 -18t13 -13t18 -5h1h73h6q19 0 32.5 14t13.5 33l1 512q0 8 -2.5 15t-7 13t-10 10t-12.5 6.5t-15 2.5h-2h-2h-2h-1h-72h-1v0h-5v-1q-5 -1 -9 -3t-7.5 -5t-6.5 -7t-4 -8.5t-1 -9.5q0 -13 8 -22.5t20 -11.5v-1h60l-1 -466
h-54zM20 288q33 -53 99 -56q4 -1 7 -1h237q-25 -76 -25 -149q0 -49 10 -98l2 -4q11 -42 45 -69t78 -27q50 0 83.5 37.5t33.5 92.5v4v7q3 92 68 161t160 80l4 1l1 331v276h-17h-1h-4h-597q-28 0 -58 -20q-10 -6 -18.5 -14t-15.5 -17.5t-12 -19.5q-2 -3 -4 -7t-3 -8l-91 -406
q-2 -8 -1 -16q-3 -42 19 -78v0zM67 351l1 5l97 429q2 5 5.5 9.5t7.5 6.5q3 2 6.5 3.5t7.5 2.5h1h4l559 -1v-474q-42 -19 -70 -34.5t-59.5 -39.5t-54 -56t-37.5 -72l-1 -4q-7 -21 -11 -40q-7 -36 -6 -70q3 -25 -11 -41q-15 -17 -37 -17q-19 1 -37 21.5t-18 37.5q-6 34 -7 66
q0 37 5 63h1v3q6 27 14.5 52.5t21.5 49.5l1 3v1q3 8 3 17q0 11 -4.5 17.5t-14 9t-15.5 3.5t-16 1h-290h-2h-3v1l-6 -1q-21 0 -31 18q-9 14 -4 30v0zM67 351z" />
    <glyph glyph-name="uniE656" unicode="&#xe656;" 
d="M23 290q16 -26 41 -40t58 -16h7l236 -1q-25 -75 -25 -148q0 -25 3 -49.5t8 -48.5l1 -4h1q7 -28 25 -50t43.5 -34t53.5 -12q50 0 84 37t34 93v4v7q2 92 67 161t160 80h4l1 331v276h-17h-4h-597q-28 0 -59 -20q-14 -9 -26 -22t-19 -29q-5 -6 -7 -14l-91 -407q-2 -8 -1 -15
q-3 -42 19 -79v0zM852 831q0 13 6.5 23t16.5 16t23 6h80q12 0 22.5 -6t16.5 -16t6 -23v-515q0 -13 -6 -23.5t-16.5 -16.5t-22.5 -6h-80q-19 0 -32.5 13.5t-13.5 32.5v515z" />
    <glyph glyph-name="uniE657" unicode="&#xe657;" 
d="M512 891q-103 0 -197 -40.5t-161.5 -108t-108 -161.5t-40.5 -197t40.5 -197t108 -161.5t161.5 -108t197 -40.5t197 40.5t161.5 108t108 161.5t40.5 197t-40.5 197t-108 161.5t-161.5 108t-197 40.5zM512 -12q-108 0 -199 53t-144 144t-53 199q0 81 31.5 154t84.5 126
t126 84.5t154 31.5q108 0 199 -53t144 -144t53 -199t-53 -199t-144 -144t-199 -53zM892 385q-66 -50 -142 -81q15 71 15 143q0 38 -4 76q66 -29 124 -71q-9 48 -31 95q-17 10 -34 18.5t-35 16t-36 14.5q-12 55 -33 108q-38 24 -88 40q32 -61 51 -127q-41 10 -82.5 15
t-84.5 5q-85 0 -167 -20q19 66 51 127q-24 -8 -46 -18t-42 -22q-21 -53 -33 -108q-54 -20 -105 -49q-22 -47 -31 -95q58 42 124 71q-2 -19 -3 -38t-1 -38q0 -36 3.5 -72t11.5 -71q-76 31 -142 81v-1q0 -40 10 -83q35 -22 73.5 -40t78.5 -32q37 -113 111 -208q51 -15 98 -16
q-88 89 -134 204q70 -15 143 -15q37 0 72.5 4t70.5 11q-46 -115 -134 -204q47 1 98 16q36 47 64 99.5t47 108.5q80 27 152 72q10 44 10 83v1zM680 280q-82 -23 -168 -23q-29 0 -57.5 3t-56 8t-54.5 12q-11 40 -16.5 82t-5.5 85q0 51 8 100q89 27 182 27t182 -27
q2 -12 3.5 -24.5t2.5 -25t1.5 -25t0.5 -25.5q0 -85 -22 -167z" />
    <glyph glyph-name="uniE658" unicode="&#xe658;" 
d="M809 363q0 23 4.5 45t13 40t17 33t21.5 28t20 20.5t19.5 16t13.5 9t7 4.5q-22 31 -51.5 52.5t-58 31.5t-48.5 13.5t-37 4.5q-28 3 -61 -4t-57 -17t-48.5 -18t-37.5 -8q-17 0 -47 11t-64.5 22.5t-64.5 10.5q-67 -1 -126 -35.5t-94 -93.5q-34 -56 -42 -128.5t6 -142.5
t41 -134t62 -114q22 -29 37 -47.5t37 -40.5t46 -32.5t49 -9.5q31 1 81 21.5t93 20.5q42 0 91.5 -20.5t84.5 -20.5q21 1 41 9t34.5 18t32 29t28 33t27.5 38q51 72 73 146v1q-9 3 -19 8t-34.5 23t-42 39.5t-32 58t-15.5 79.5v0zM659 728q19 22 32.5 48t20 56.5t2.5 59.5
q-40 -1 -84 -23t-72 -55q-29 -32 -45.5 -75t-11.5 -84q18 -1 36 2t35 9.5t32.5 16t29.5 21t25 24.5v0zM659 728z" />
    <glyph glyph-name="uniE659" unicode="&#xe659;" 
d="M614 576q-15 0 -24.5 10t-9.5 24v284h-413q-11 0 -20.5 -5.5t-15.5 -15t-6 -21.5v-938q0 -12 6 -21.5t15.5 -15t20.5 -5.5h689q11 0 20.5 5.5t15 15t5.5 21.5v662h-283zM284 394h386v-45h-386v45zM398 621v-45h-114v45h114zM284 281h455v-46h-455v46zM284 167h250v-45
h-250v45zM897 621h-249q-4 0 -7.5 1.5t-6.5 3.5t-5 4.5t-3 6t-1 7.5v250z" />
    <glyph glyph-name="uniE65A" unicode="&#xe65a;" 
d="M896 428q-26 0 -45 -19t-19 -45v-256q0 -26 19 -45t45 -19t45 19t19 45v256q0 26 -19 45t-45 19zM128 428q-26 0 -45 -19t-19 -45v-256q0 -26 19 -45t45 -19t45 19t19 45v256q0 26 -19 45t-45 19zM224 76q0 -40 28 -68t68 -28v-128q0 -26 19 -45t45 -19t45 19t19 45v128
h128v-128q0 -26 19 -45t45 -19t45 19t19 45v128q40 0 68 28t28 68v352h-576v-352zM798 492q-5 43 -22 83t-44.5 72t-62.5 55l32 64q2 4 2.5 9.5t0 10t-3 9t-6 8t-8.5 6.5q-6 3 -12 3t-12 -2t-11 -6t-8 -10l-32 -64l-8 3q-15 5 -29.5 8.5t-30 5t-31.5 1.5q-47 0 -91 -15
l-8 -3l-32 64q-6 12 -18.5 16.5t-24.5 -1.5q-5 -3 -8.5 -6.5t-6 -8t-3 -9t0 -10t2.5 -9.5l32 -64q-13 -9 -25 -19t-23 -21t-21 -23.5t-18.5 -26t-15 -28t-12 -29.5t-9 -31t-5.5 -32v-32h574v32h-2zM416 556q-13 0 -22.5 9.5t-9.5 22.5q0 7 2.5 12.5t7 10t10 7t12.5 2.5v0
q13 0 22.5 -9.5t9.5 -22.5q0 -7 -2.5 -12.5t-7 -10t-10 -7t-12.5 -2.5zM608 556q-13 0 -22.5 9.5t-9.5 22.5q0 5 1.5 10t4.5 9t7 7t9 4.5t10 1.5v0q13 0 22.5 -9.5t9.5 -22.5t-9.5 -22.5t-22.5 -9.5z" />
    <glyph glyph-name="uniE65B" unicode="&#xe65b;" 
d="M18 102q12 -12 29.5 -12t29.5 12l431 435l436 -433q13 -12 30.5 -12t29.5 12.5t12 29.5t-12 30l-464 460q-1 0 -1.5 0.5t-1.5 0.5v1q-13 12 -30 12t-30 -13l-460 -464q-12 -12 -12 -29.5t13 -29.5z" />
    <glyph glyph-name="uniE65C" unicode="&#xe65c;" 
d="M512 100q-78 0 -133 55t-55 133t55 133t133 55t133 -55t55 -133q0 -51 -25 -94.5t-68.5 -68.5t-94.5 -25z" />
    <glyph glyph-name="uniE65D" unicode="&#xe65d;" 
d="M260 571h509q13 0 25 -7t18.5 -18.5t6.5 -25.5q0 -10 -3 -18.5t-10 -15.5l-251 -336q-13 -16 -33.5 -19t-37.5 9q-3 2 -5.5 4.5t-4.5 5.5l-255 340q-12 16 -9 37t19 33q14 11 31 11v0z" />
    <glyph glyph-name="uniE65E" unicode="&#xe65e;" 
d="M570 383l321 310q7 8 10 18t0 19.5t-10 17.5q-6 5 -13.5 8t-15 3t-15 -3t-13.5 -8l-320 -310l-321 310q-11 11 -27.5 11t-28.5 -11t-12 -27t12 -28l321 -310l-321 -310q-12 -11 -12 -27t12 -27.5t28.5 -11.5t27.5 11l321 311l320 -311q8 -7 18 -9.5t20.5 0t18.5 9.5
q11 12 11 28t-11 27z" />
    <glyph glyph-name="uniE65F" unicode="&#xe65f;" 
d="M764 197h-509q-10 0 -19.5 4t-16 11t-10.5 16.5t-4 19.5t3 18.5t10 15.5l251 336q13 16 33.5 19t37.5 -9q3 -2 5.5 -4.5t4.5 -5.5l255 -340q12 -16 9 -37t-19 -33q-7 -6 -15 -8.5t-16 -2.5v0z" />
    <glyph glyph-name="uniE660" unicode="&#xe660;" 
d="M699 636v-509q0 -13 -7 -25t-18.5 -18.5t-25.5 -6.5q-4 0 -8 0.5t-7.5 1.5t-6.5 2.5t-6 3.5t-6 5l-336 251q-5 4 -9 9.5t-6.5 11.5t-3.5 12.5t-0.5 13t3 13t6.5 11.5q2 3 4.5 5.5t5.5 4.5l340 255q16 12 37 9t33 -19q11 -14 11 -31v0z" />
  </font>
</defs>
</svg>
